<?xml version="1.0" encoding="UTF-8" standalone="no"?>
<!-- Created with Inkscape (http://www.inkscape.org/) -->

<svg
   xmlns:dc="http://purl.org/dc/elements/1.1/"
   xmlns:cc="http://creativecommons.org/ns#"
   xmlns:rdf="http://www.w3.org/1999/02/22-rdf-syntax-ns#"
   xmlns:svg="http://www.w3.org/2000/svg"
   xmlns="http://www.w3.org/2000/svg"
   xmlns:sodipodi="http://sodipodi.sourceforge.net/DTD/sodipodi-0.dtd"
   xmlns:inkscape="http://www.inkscape.org/namespaces/inkscape"
   width="226.27411mm"
   height="117.07072mm"
   viewBox="0 0 226.27411 117.07072"
   version="1.1"
   id="svg8"
   inkscape:version="0.92.3 (2405546, 2018-03-11)"
   sodipodi:docname="white-logo.svg">
  <defs
     id="defs2">
    <inkscape:perspective
       sodipodi:type="inkscape:persp3d"
       inkscape:vp_x="0 : 148.49999 : 1"
       inkscape:vp_y="0 : 999.99996 : 0"
       inkscape:vp_z="182.78572 : 52.494044 : 1"
       inkscape:persp3d-origin="105 : 98.999996 : 1"
       id="perspective3713" />
    <style
       id="style4343"
       type="text/css">
   <![CDATA[
    .str0 {stroke:#373435;stroke-width:50}
    .fil15 {fill:none}
    .fil12 {fill:#33919C}
    .fil3 {fill:#3494A0}
    .fil11 {fill:#3597A3}
    .fil2 {fill:#3698A5}
    .fil1 {fill:#369AA6}
    .fil14 {fill:#373435}
    .fil10 {fill:#3BA7B5}
    .fil9 {fill:#43B4C2}
    .fil0 {fill:#46B5C3}
    .fil5 {fill:#4AB6C4}
    .fil7 {fill:#4CB7C5}
    .fil8 {fill:#62C0CC}
    .fil6 {fill:#6EC5D0}
    .fil4 {fill:#76C9D3}
    .fil13 {fill:#FEFEFE}
   ]]>
  </style>
    <style
       id="style4743"
       type="text/css">
   <![CDATA[
    .str0 {stroke:#373435;stroke-width:50}
    .fil15 {fill:none}
    .fil12 {fill:#33919C}
    .fil3 {fill:#3494A0}
    .fil11 {fill:#3597A3}
    .fil2 {fill:#3698A5}
    .fil1 {fill:#369AA6}
    .fil14 {fill:#373435}
    .fil10 {fill:#3BA7B5}
    .fil9 {fill:#43B4C2}
    .fil0 {fill:#46B5C3}
    .fil5 {fill:#4AB6C4}
    .fil7 {fill:#4CB7C5}
    .fil8 {fill:#62C0CC}
    .fil6 {fill:#6EC5D0}
    .fil4 {fill:#76C9D3}
    .fil13 {fill:#FEFEFE}
   ]]>
  </style>
  </defs>
  <sodipodi:namedview
     id="base"
     pagecolor="#ffffff"
     bordercolor="#666666"
     borderopacity="1.0"
     inkscape:pageopacity="0.0"
     inkscape:pageshadow="2"
     inkscape:zoom="1"
     inkscape:cx="304.16371"
     inkscape:cy="253.95125"
     inkscape:document-units="mm"
     inkscape:current-layer="layer1"
     showgrid="false"
     inkscape:pagecheckerboard="true"
     inkscape:window-width="1920"
     inkscape:window-height="1012"
     inkscape:window-x="0"
     inkscape:window-y="0"
     inkscape:window-maximized="1" />
  <metadata
     id="metadata5">
    <rdf:RDF>
      <cc:Work
         rdf:about="">
        <dc:format>image/svg+xml</dc:format>
        <dc:type
           rdf:resource="http://purl.org/dc/dcmitype/StillImage" />
        <dc:title></dc:title>
      </cc:Work>
    </rdf:RDF>
  </metadata>
  <g
     inkscape:label="Camada 1"
     inkscape:groupmode="layer"
     id="layer1"
     transform="translate(6.4036264,-91.064549)">
    <g
       id="g3997"
       transform="rotate(-45,49.490689,196.55595)">
      <path
         id="rect3757-3-5-4"
         transform="scale(0.26458333)"
         d="M 151.18164,480 V 668.97656 H 340.1582 V 480 Z m 1.88867,1.89062 H 338.26758 V 667.08594 H 153.07031 Z"
         style="fill:#ffffff;stroke-width:0.87028605"
         inkscape:connector-curvature="0" />
      <path
         id="rect3966"
         transform="scale(0.26458333)"
         d="m 156.30469,483.7793 89.36914,89.37109 89.36719,-89.37109 z m 180.07422,1.33398 -89.36914,89.37305 89.36914,89.36914 z m -181.41797,0.01 v 178.74609 l 89.37109,-89.375 z m 90.70703,90.70703 -89.36328,89.36719 h 178.73047 z"
         style="opacity:1;fill:#ffffff;stroke-width:0.99999994"
         inkscape:connector-curvature="0" />
    </g>
    <g
       id="g4003"
       transform="rotate(-45,21.990763,130.16524)">
      <path
         style="fill:#ffffff;stroke-width:0.87028605"
         d="M 122.78516,435.37305 256.41211,569 390.03906,435.37305 h -2.67383 L 256.41211,566.32812 125.45898,435.375 l 0.002,-0.002 z"
         transform="matrix(0.18708867,0.18708867,-0.18708867,0.18708867,98.481669,22.574698)"
         id="path3999"
         inkscape:connector-curvature="0" />
      <path
         style="opacity:1;fill:#ffffff;stroke-width:0.99999994"
         d="m 129.08203,436.32422 126.39258,126.39258 -0.004,-126.39258 z m 128.27735,0 0.004,126.38086 126.38086,-126.38086 z"
         transform="matrix(0.18708867,0.18708867,-0.18708867,0.18708867,98.481669,22.574698)"
         id="path4001"
         inkscape:connector-curvature="0" />
    </g>
    <g
       transform="rotate(-45,88.381579,102.66526)"
       id="g4015">
      <path
         inkscape:connector-curvature="0"
         id="path4011"
         transform="scale(0.26458333)"
         d="M 151.18164,480 V 668.97656 H 340.1582 V 480 Z m 1.88867,1.89062 H 338.26758 V 667.08594 H 153.07031 Z"
         style="fill:#ffffff;stroke-width:0.87028605" />
      <path
         style="opacity:1;fill:#ffffff;stroke-width:0.99999994"
         d="m 428.54688,22.478516 0.002,65.292968 c 8.2563,2.780605 14.3699,6.859175 18.43359,11.964844 2.61298,3.224502 4.44889,5.227452 6.50586,9.841792 2.00141,4.44762 2.50189,8.17212 3.22461,13.06446 0.22254,2.89092 0.22212,5.00334 -0.22266,7.67187 -0.44473,2.94652 0.16575,4.0581 -1.61328,6.00391 -3.33566,1.94581 -4.77997,-2.83424 -6.89257,-3.16797 -0.66723,-2.61294 0.16688,-5.17053 0.11132,-8.00586 0,-2.72413 -0.50084,-4.83715 -1.16797,-7.39453 -2.74531,-9.92532 -9.25595,-16.9864 -18.3789,-20.625 v 10.82812 c 2.0875,1.30771 3.70513,2.74178 5.32226,4.78321 1.27869,1.83462 3.99511,5.40242 1.66016,7.79297 -1.83462,1.16749 -3.39241,-0.77786 -4.83789,-1.94532 -0.84058,-0.63044 -1.43667,-1.28545 -2.14453,-2.00976 v 8.44531 c 16.51024,13.39835 19.92101,16.22171 28.8789,23.84961 h 97.50977 z m -1.88868,0.0039 -126.38476,126.384764 84.91211,0.002 -0.91407,-1.09766 c -1.46808,-2.40408 -4.50583,-6.60145 -5.11328,-10.11914 -3.78042,-12.28641 -2.058,-25.79632 5.44727,-35.52539 3.0021,-3.947174 7.67324,-8.393516 11.89844,-10.728508 9.06281,-5.02874 19.22385,-6.702615 30.15625,-4.210938 z m -8.78515,72.183594 c -5.63003,-0.04398 -11.5154,1.401837 -14.64258,3.347656 l -1.94531,0.779297 c -4.89235,3.724837 -5.72662,3.723337 -9.67383,8.949217 -6.1154,8.06124 -7.39511,19.62495 -3.16992,28.96484 1.94581,4.16958 4.91473,8.52272 7.83984,11.06445 0.29221,0.22821 0.96555,0.72687 1.45117,1.09766 h 13.74024 c -0.0214,-0.42071 -0.0535,-0.84772 -0.0703,-1.26562 -0.50033,-5.11469 -0.94484,-10.00729 -1.33398,-15.06641 -0.22258,-2.50175 -0.61112,-5.39097 -0.5,-8.00391 0.27878,-4.84327 2.50195,-5.56054 2.50195,-5.56054 2.66854,-0.77851 5.22502,-2.6679 8.67188,-0.27735 1.83462,1.27869 4.00327,3.16798 5.83789,4.72461 0.0339,0.0275 0.0463,0.037 0.0801,0.0645 v -8.66016 c -1.58661,-1.31338 -4.95219,-3.11984 -7.47461,-3.52344 -2.89093,-0.50033 -5.28142,0.11153 -7.78321,1.05664 -1.28961,0.51863 -2.06212,1.24497 -3.39062,2.11328 -9.50665,7.39408 -2.33437,20.45788 -4.94727,22.68164 -3.72483,1.2231 -4.6157,-1.77971 -5.7832,-5.22656 -3.22448,-9.28429 1.93171,-21.13787 8.79687,-24.25976 5.41565,-3.73674 13.71235,-3.04901 20.58204,-0.78321 V 96.380859 c -2.48199,-1.170125 -5.58675,-1.689842 -8.78711,-1.714843 z m -117.59961,56.10156 126.39258,126.39258 -0.002,-81.8086 c -4.4994,3.5729 -8.72187,0.69161 -10.75781,-3.16015 -0.88951,-1.61224 -1.61262,-11.78564 -1.7793,-14.50977 -0.59507,-8.87667 -1.98099,-18.14869 -2.55078,-26.91406 h -11.28711 c 1.12125,0.80099 2.20274,1.5378 2.83008,1.83984 2.05697,1.00071 2.16752,0.83433 2.44531,3.44727 0.2781,2.22376 0.50202,4.05765 -0.2207,5.66992 -3.44685,1.38985 -10.11906,-3.3353 -12.39844,-5.16992 -1.83462,-1.50104 -3.50257,-2.61224 -4.78125,-4.11328 l -1.39453,-1.67383 z m 159.38476,0 c 0.68193,0.58116 1.07469,0.91374 1.83594,1.5625 4.04995,3.20568 9.47871,7.20523 12.28516,12.06445 0.22238,2.16817 0.33351,4.2793 -0.83399,5.83594 -3.89163,5.05912 -8.28325,3.44684 -16.90039,3.22461 3.70776,8.92176 9.30365,16.26577 12.6211,24.79492 1.82664,6.02166 -2.22378,7.67346 -6.22657,9.73047 l -5.28125,2.66797 c -2.50174,1.00055 -4.50411,0.77858 -7.00586,0.22265 -3.84597,-2.20667 -11.25044,-19.90871 -15.28906,-25.85156 l -4.03516,5.40039 c -1.24015,1.56568 -1.46852,1.97267 -2.27539,2.91016 l 0.002,83.82031 126.38086,-126.38281 z"
         transform="matrix(0.18708867,0.18708867,-0.18708867,0.18708867,13.029491,43.970825)"
         id="path4013"
         inkscape:connector-curvature="0" />
    </g>
    <g
       id="g4021"
       transform="rotate(-45,154.77245,75.165265)">
      <path
         style="fill:#ffffff;stroke-width:0.87028605"
         d="M 550.39062,595.72461 416.76367,729.35156 h 2.67578 L 550.39062,598.39844 681.34375,729.35156 h 2.67383 z"
         transform="matrix(0.18708867,0.18708867,-0.18708867,0.18708867,98.48167,-87.425253)"
         id="path4017"
         inkscape:connector-curvature="0" />
      <path
         style="opacity:1;fill:#ffffff;stroke-width:0.99999994"
         d="m 551.33398,602.01367 0.002,126.38867 h 126.38867 z m -1.88867,0.002 -126.38672,126.38477 126.38868,0.002 z"
         transform="matrix(0.18708867,0.18708867,-0.18708867,0.18708867,98.48167,-87.425253)"
         id="path4019"
         inkscape:connector-curvature="0" />
    </g>
    <g
       transform="rotate(-45,127.27245,8.7743938)"
       id="g4027">
      <path
         inkscape:connector-curvature="0"
         id="path4023"
         transform="scale(0.26458333)"
         d="M 151.18164,480 V 668.97656 H 340.1582 V 480 Z m 1.88867,1.89062 H 338.26758 V 667.08594 H 153.07031 Z"
         style="fill:#ffffff;stroke-width:0.87028605" />
      <path
         inkscape:connector-curvature="0"
         id="path4025"
         transform="scale(0.26458333)"
         d="m 156.30469,483.7793 89.36914,89.37109 89.36719,-89.37109 z m 180.07422,1.33398 -89.36914,89.37305 89.36914,89.36914 z m -181.41797,0.01 v 178.74609 l 89.37109,-89.375 z m 90.70703,90.70703 -89.36328,89.36719 h 178.73047 z"
         style="opacity:1;fill:#ffffff;stroke-width:0.99999994" />
    </g>
    <path
       style="color:#000000;font-style:normal;font-variant:normal;font-weight:normal;font-stretch:normal;font-size:medium;line-height:normal;font-family:sans-serif;font-variant-ligatures:normal;font-variant-position:normal;font-variant-caps:normal;font-variant-numeric:normal;font-variant-alternates:normal;font-feature-settings:normal;text-indent:0;text-align:start;text-decoration:none;text-decoration-line:none;text-decoration-style:solid;text-decoration-color:#000000;letter-spacing:normal;word-spacing:normal;text-transform:none;writing-mode:lr-tb;direction:ltr;text-orientation:mixed;dominant-baseline:auto;baseline-shift:baseline;text-anchor:start;white-space:normal;shape-padding:0;clip-rule:nonzero;display:inline;overflow:visible;visibility:visible;opacity:1;isolation:auto;mix-blend-mode:normal;color-interpolation:sRGB;color-interpolation-filters:linearRGB;solid-color:#000000;solid-opacity:1;vector-effect:none;fill:#ffffff;fill-opacity:1;fill-rule:nonzero;stroke:none;stroke-width:1.88976383px;stroke-linecap:butt;stroke-linejoin:miter;stroke-miterlimit:4;stroke-dasharray:none;stroke-dashoffset:0;stroke-opacity:1;color-rendering:auto;image-rendering:auto;shape-rendering:auto;text-rendering:auto;enable-background:accumulate"
       d="M 550.39062,595.72461 413.93359,732.18164 h 2.67774 L 551.72656,597.06055 Z"
       transform="scale(0.26458333)"
       id="path4255"
       inkscape:connector-curvature="0" />
    <path
       style="color:#000000;font-style:normal;font-variant:normal;font-weight:normal;font-stretch:normal;font-size:medium;line-height:normal;font-family:sans-serif;font-variant-ligatures:normal;font-variant-position:normal;font-variant-caps:normal;font-variant-numeric:normal;font-variant-alternates:normal;font-feature-settings:normal;text-indent:0;text-align:start;text-decoration:none;text-decoration-line:none;text-decoration-style:solid;text-decoration-color:#000000;letter-spacing:normal;word-spacing:normal;text-transform:none;writing-mode:lr-tb;direction:ltr;text-orientation:mixed;dominant-baseline:auto;baseline-shift:baseline;text-anchor:start;white-space:normal;shape-padding:0;clip-rule:nonzero;display:inline;overflow:visible;visibility:visible;opacity:1;isolation:auto;mix-blend-mode:normal;color-interpolation:sRGB;color-interpolation-filters:linearRGB;solid-color:#000000;solid-opacity:1;vector-effect:none;fill:#ffffff;fill-opacity:1;fill-rule:nonzero;stroke:none;stroke-width:1.88976383px;stroke-linecap:butt;stroke-linejoin:miter;stroke-miterlimit:4;stroke-dasharray:none;stroke-dashoffset:0;stroke-opacity:1;color-rendering:auto;image-rendering:auto;shape-rendering:auto;text-rendering:auto;enable-background:accumulate"
       d="m 550.39062,595.72461 -1.33593,1.33594 135.11914,135.12109 h 2.67383 z"
       transform="scale(0.26458333)"
       id="path4261"
       inkscape:connector-curvature="0" />
    <path
       style="color:#000000;font-style:normal;font-variant:normal;font-weight:normal;font-stretch:normal;font-size:medium;line-height:normal;font-family:sans-serif;font-variant-ligatures:normal;font-variant-position:normal;font-variant-caps:normal;font-variant-numeric:normal;font-variant-alternates:normal;font-feature-settings:normal;text-indent:0;text-align:start;text-decoration:none;text-decoration-line:none;text-decoration-style:solid;text-decoration-color:#000000;letter-spacing:normal;word-spacing:normal;text-transform:none;writing-mode:lr-tb;direction:ltr;text-orientation:mixed;dominant-baseline:auto;baseline-shift:baseline;text-anchor:start;white-space:normal;shape-padding:0;clip-rule:nonzero;display:inline;overflow:visible;visibility:visible;opacity:1;isolation:auto;mix-blend-mode:normal;color-interpolation:sRGB;color-interpolation-filters:linearRGB;solid-color:#000000;solid-opacity:1;vector-effect:none;fill:#ffffff;fill-opacity:1;fill-rule:nonzero;stroke:none;stroke-width:0.42862985px;stroke-linecap:butt;stroke-linejoin:miter;stroke-miterlimit:4;stroke-dasharray:none;stroke-dashoffset:0;stroke-opacity:1;color-rendering:auto;image-rendering:auto;shape-rendering:auto;text-rendering:auto;enable-background:accumulate"
       d="m 110.02372,193.223 v 0.5 h 71.13257 v -0.5 z"
       id="path4288"
       inkscape:connector-curvature="0" />
    <path
       style="color:#000000;font-style:normal;font-variant:normal;font-weight:normal;font-stretch:normal;font-size:medium;line-height:normal;font-family:sans-serif;font-variant-ligatures:normal;font-variant-position:normal;font-variant-caps:normal;font-variant-numeric:normal;font-variant-alternates:normal;font-feature-settings:normal;text-indent:0;text-align:start;text-decoration:none;text-decoration-line:none;text-decoration-style:solid;text-decoration-color:#000000;letter-spacing:normal;word-spacing:normal;text-transform:none;writing-mode:lr-tb;direction:ltr;text-orientation:mixed;dominant-baseline:auto;baseline-shift:baseline;text-anchor:start;white-space:normal;shape-padding:0;clip-rule:nonzero;display:inline;overflow:visible;visibility:visible;opacity:1;isolation:auto;mix-blend-mode:normal;color-interpolation:sRGB;color-interpolation-filters:linearRGB;solid-color:#000000;solid-opacity:1;vector-effect:none;fill:#ffffff;fill-opacity:1;fill-rule:nonzero;stroke:none;stroke-width:0.50147241px;stroke-linecap:butt;stroke-linejoin:miter;stroke-miterlimit:4;stroke-dasharray:none;stroke-dashoffset:0;stroke-opacity:1;color-rendering:auto;image-rendering:auto;shape-rendering:auto;text-rendering:auto;enable-background:accumulate"
       d="m 32.239651,114.444 v 0.5 h 71.128029 v -0.5 z"
       id="path4323"
       inkscape:connector-curvature="0" />
    <path
       style="color:#000000;font-style:normal;font-variant:normal;font-weight:normal;font-stretch:normal;font-size:medium;line-height:normal;font-family:sans-serif;font-variant-ligatures:normal;font-variant-position:normal;font-variant-caps:normal;font-variant-numeric:normal;font-variant-alternates:normal;font-feature-settings:normal;text-indent:0;text-align:start;text-decoration:none;text-decoration-line:none;text-decoration-style:solid;text-decoration-color:#000000;letter-spacing:normal;word-spacing:normal;text-transform:none;writing-mode:lr-tb;direction:ltr;text-orientation:mixed;dominant-baseline:auto;baseline-shift:baseline;text-anchor:start;white-space:normal;shape-padding:0;clip-rule:nonzero;display:inline;overflow:visible;visibility:visible;opacity:1;isolation:auto;mix-blend-mode:normal;color-interpolation:sRGB;color-interpolation-filters:linearRGB;solid-color:#000000;solid-opacity:1;vector-effect:none;fill:#ffffff;fill-opacity:1;fill-rule:nonzero;stroke:none;stroke-width:1.88976383px;stroke-linecap:butt;stroke-linejoin:miter;stroke-miterlimit:4;stroke-dasharray:none;stroke-dashoffset:0;stroke-opacity:1;color-rendering:auto;image-rendering:auto;shape-rendering:auto;text-rendering:auto;enable-background:accumulate"
       d="M 390.19531,432.54492 255.07617,567.66406 256.41211,569 392.86719,432.54492 Z"
       transform="scale(0.26458333)"
       id="path4327"
       inkscape:connector-curvature="0" />
    <path
       style="color:#000000;font-style:normal;font-variant:normal;font-weight:normal;font-stretch:normal;font-size:medium;line-height:normal;font-family:sans-serif;font-variant-ligatures:normal;font-variant-position:normal;font-variant-caps:normal;font-variant-numeric:normal;font-variant-alternates:normal;font-feature-settings:normal;text-indent:0;text-align:start;text-decoration:none;text-decoration-line:none;text-decoration-style:solid;text-decoration-color:#000000;letter-spacing:normal;word-spacing:normal;text-transform:none;writing-mode:lr-tb;direction:ltr;text-orientation:mixed;dominant-baseline:auto;baseline-shift:baseline;text-anchor:start;white-space:normal;shape-padding:0;clip-rule:nonzero;display:inline;overflow:visible;visibility:visible;opacity:1;isolation:auto;mix-blend-mode:normal;color-interpolation:sRGB;color-interpolation-filters:linearRGB;solid-color:#000000;solid-opacity:1;vector-effect:none;fill:#ffffff;fill-opacity:1;fill-rule:nonzero;stroke:none;stroke-width:1.88976383px;stroke-linecap:butt;stroke-linejoin:miter;stroke-miterlimit:4;stroke-dasharray:none;stroke-dashoffset:0;stroke-opacity:1;color-rendering:auto;image-rendering:auto;shape-rendering:auto;text-rendering:auto;enable-background:accumulate"
       d="M 119.95703,432.54492 256.41211,569 257.74805,567.66406 122.62891,432.54492 Z"
       transform="scale(0.26458333)"
       id="path4331"
       inkscape:connector-curvature="0" />
    <path
       id="path4809-8"
       d="m 169.27683,202.19694 c 0,-0.78557 0.0799,-1.59776 0.77224,-1.94394 0.73231,-0.37282 1.22495,0.0532 1.74422,0.34618 0,1.97057 0.71899,3.31535 -1.30482,3.31535 -0.83884,0 -1.21164,-0.83883 -1.21164,-1.70428 z m -1.59777,-0.0932 c 0,1.22495 0.43938,2.22355 1.27821,2.74282 0.31956,0.19972 1.01191,0.39944 1.49124,0.34619 0.78557,-0.10652 0.91871,-0.27961 1.45131,-0.57253 0,1.91731 -0.54591,2.11703 -2.40996,2.11703 -0.63911,0 -0.87877,-0.15978 -1.41136,-0.19972 v 1.21163 c 1.14506,0.55922 5.32587,0.70568 5.32587,-2.40995 v -6.32447 h -1.41136 v 0.59916 c -0.95865,-0.6391 -0.54589,-0.70568 -1.91731,-0.70568 -1.47793,0 -2.40995,1.65102 -2.40995,3.22215 v -0.0266 z"
       class="fil13"
       inkscape:connector-curvature="0"
       style="clip-rule:evenodd;fill:#fefefe;fill-rule:evenodd;stroke-width:0.01331466;image-rendering:optimizeQuality;shape-rendering:geometricPrecision;text-rendering:geometricPrecision" />
    <path
       id="path4811-1"
       d="m 88.976068,198.9881 c 0,1.23827 0.146462,2.06378 1.717592,2.48984 1.211635,0.33287 2.489844,0.29293 2.489844,1.33147 0,1.53119 -2.556417,1.25158 -3.688164,0.87877 -0.279608,-0.0799 -0.266293,-0.14646 -0.625789,-0.17309 v 1.30484 c 1.730906,0.91871 5.938343,0.77225 5.938343,-1.8108 0,-1.26489 -0.159777,-2.03714 -1.810796,-2.51647 -1.251579,-0.3595 -2.409955,-0.18641 -2.409955,-1.50456 0,-1.47793 3.049059,-0.77225 3.82131,-0.39944 v -1.41135 c -0.332868,-0.0666 -0.359496,-0.14646 -0.758936,-0.25298 -1.917313,-0.46601 -4.660134,-0.19972 -4.660134,2.05046 z"
       class="fil13"
       inkscape:connector-curvature="0"
       style="clip-rule:evenodd;fill:#fefefe;fill-rule:evenodd;stroke-width:0.01331466;image-rendering:optimizeQuality;shape-rendering:geometricPrecision;text-rendering:geometricPrecision" />
    <path
       id="path4813-2"
       d="m 128.06793,200.18642 h 0.29293 c 0.62579,0 0.85213,0.51927 0.90539,1.10512 h -2.21023 c 0.0533,-0.5459 0.41275,-1.10512 1.01191,-1.10512 z m -2.71619,1.91731 c 0,1.77085 1.05186,3.11564 2.8094,3.11564 1.66433,0 1.01191,0.0533 2.51647,-0.29293 v -1.21163 c -0.79888,0.0266 -3.18221,1.19832 -3.71479,-1.10512 h 3.11563 c 0.82551,0.0133 0.79888,0.0666 0.79888,-0.70568 0,-2.55641 -2.03715,-3.55501 -3.82131,-2.71619 -1.0918,0.50596 -1.70428,1.73091 -1.70428,2.91591 v 0.0133 z"
       class="fil13"
       inkscape:connector-curvature="0"
       style="clip-rule:evenodd;fill:#fefefe;fill-rule:evenodd;stroke-width:0.01331466;image-rendering:optimizeQuality;shape-rendering:geometricPrecision;text-rendering:geometricPrecision" />
    <path
       id="path4815-8"
       d="m 177.10584,200.09322 c 0.65244,0 1.30485,-0.0266 1.30485,1.10512 h -2.21024 c 0.0932,-0.18641 0.31956,-1.10512 0.90539,-1.10512 z m -2.51647,1.70428 c 0,1.41135 0.23968,2.56973 1.70429,3.11563 0.9054,0.34618 2.66292,0.30624 3.52839,-0.10652 v -1.21163 c -0.37281,0.0399 -3.56834,1.07848 -3.6216,-1.10512 h 3.82132 c 0,-1.10512 0.0799,-2.15698 -0.78557,-3.03574 -1.37142,-1.38473 -4.64683,-0.50596 -4.64683,2.34338 z"
       class="fil13"
       inkscape:connector-curvature="0"
       style="clip-rule:evenodd;fill:#fefefe;fill-rule:evenodd;stroke-width:0.01331466;image-rendering:optimizeQuality;shape-rendering:geometricPrecision;text-rendering:geometricPrecision" />
    <path
       id="path4817-9"
       d="m 157.71969,200.09322 h 0.0932 c 0.63911,0 0.98529,0.55922 1.01192,1.21163 h -2.21024 c 0.0533,-0.6391 0.43939,-1.21163 1.10512,-1.21163 z m 0.39944,5.12615 c 0.70568,0 1.63771,-0.1731 2.11703,-0.39944 v -1.21164 c -0.90539,0.21304 -2.35669,0.6391 -3.23546,-0.0799 -0.29292,-0.23966 -0.43938,-0.55921 -0.47933,-1.03854 h 3.91451 c 0,-1.91731 -0.2796,-3.62159 -2.71619,-3.62159 -2.86264,0 -3.58163,4.02103 -1.9173,5.5389 0.51926,0.47933 1.35809,0.78557 2.33006,0.78557 v 0.0266 z"
       class="fil13"
       inkscape:connector-curvature="0"
       style="clip-rule:evenodd;fill:#fefefe;fill-rule:evenodd;stroke-width:0.01331466;image-rendering:optimizeQuality;shape-rendering:geometricPrecision;text-rendering:geometricPrecision" />
    <path
       id="path4819-3"
       d="m 99.121838,204.00773 c -2.40995,0 -1.79748,-3.71479 -0.39944,-3.71479 h 0.39944 c 1.690962,0 1.690962,3.71479 0,3.71479 z m -3.22215,-1.91731 c 0,4.28732 5.991912,4.31396 6.084812,0.0799 0.0935,-4.26068 -6.084812,-4.28733 -6.084812,-0.0799 z"
       class="fil13"
       inkscape:connector-curvature="0"
       style="clip-rule:evenodd;fill:#fefefe;fill-rule:evenodd;stroke-width:0.01331466;image-rendering:optimizeQuality;shape-rendering:geometricPrecision;text-rendering:geometricPrecision"
       sodipodi:nodetypes="sssssss" />
    <path
       id="path4821-6"
       d="m 195.49341,199.9867 c 0.70568,0 1.10512,0.46602 1.10512,1.21164 h -2.21024 c 0.13315,-0.58585 0.49264,-1.21164 1.10512,-1.21164 z m -2.71619,1.70428 v 0.70568 c 0,2.43658 2.33006,2.98248 4.31395,2.60967 0.39944,-0.0666 0.51927,-0.17309 0.9054,-0.19972 v -1.30484 c -0.73231,0.3595 -2.67625,0.59916 -3.30204,-0.11983 -0.30624,-0.35949 -0.25298,-0.59916 -0.42607,-0.98528 h 3.91451 c 0,-1.06518 0.0533,-2.06378 -0.71899,-2.9026 -1.39804,-1.49124 -4.70008,-0.6391 -4.70008,2.19692 z"
       class="fil13"
       inkscape:connector-curvature="0"
       style="clip-rule:evenodd;fill:#fefefe;fill-rule:evenodd;stroke-width:0.01331466;image-rendering:optimizeQuality;shape-rendering:geometricPrecision;text-rendering:geometricPrecision" />
    <path
       id="path4823-8"
       d="m 121.53043,204.00773 c -1.74422,0 -1.77085,-2.42327 -1.14506,-3.26209 0.14646,-0.18641 0.22635,-0.27961 0.42607,-0.38613 2.46321,-1.19832 2.83602,3.64822 0.71899,3.64822 z m -3.11563,-2.01051 c 0,4.02103 4.77997,4.20743 5.81851,1.49124 0.15978,-0.42607 0.23966,-0.74562 0.26629,-1.31815 0.0533,-1.8108 -1.03854,-3.15558 -2.90259,-3.22215 -0.91872,-0.04 -1.69097,0.22635 -2.23687,0.75893 -0.49264,0.46602 -0.93202,1.37141 -0.93202,2.29013 l -0.0133,-0.0133 z"
       class="fil13"
       inkscape:connector-curvature="0"
       style="clip-rule:evenodd;fill:#fefefe;fill-rule:evenodd;stroke-width:0.01331466;image-rendering:optimizeQuality;shape-rendering:geometricPrecision;text-rendering:geometricPrecision" />
    <path
       id="path4825-0"
       d="m 106.25851,199.38754 c 0,2.70288 -0.61247,5.93834 2.71619,5.93834 3.40856,0 2.8094,-2.94254 2.8094,-5.93834 0,-0.4527 -0.50596,-0.29292 -1.59776,-0.29292 v 3.91451 c 0,1.21164 -1.83743,1.33147 -2.22355,0.41276 -0.37281,-0.9054 0.30624,-4.32727 -0.38613,-4.32727 -0.93202,0 -1.30483,-0.13315 -1.30483,0.29292 z"
       class="fil13"
       inkscape:connector-curvature="0"
       style="clip-rule:evenodd;fill:#fefefe;fill-rule:evenodd;stroke-width:0.01331466;image-rendering:optimizeQuality;shape-rendering:geometricPrecision;text-rendering:geometricPrecision" />
    <path
       id="path4827-2"
       d="m 182.73795,199.69378 c -0.0666,-0.29292 -0.0932,-0.30624 -0.0932,-0.70568 h -1.30483 v 6.03155 h 1.50455 v -3.82131 c 0,-1.03855 2.40996,-1.66434 2.40996,-0.19972 v 4.02103 h 1.50456 v -4.52699 c 0,-0.97197 -1.41136,-2.25018 -3.14227,-1.43798 -0.38612,0.17309 -0.57253,0.42606 -0.87876,0.62578 z"
       class="fil13"
       inkscape:connector-curvature="0"
       style="clip-rule:evenodd;fill:#fefefe;fill-rule:evenodd;stroke-width:0.01331466;image-rendering:optimizeQuality;shape-rendering:geometricPrecision;text-rendering:geometricPrecision" />
    <path
       id="path4829-1"
       d="m 145.04414,199.78698 c -0.22635,-0.15977 -0.19972,0.0666 -0.19972,-0.70568 h -1.30485 v 6.03155 c 1.79748,0 1.50457,0.1864 1.50457,-1.30484 0,-1.02523 -0.17309,-2.75613 0.27961,-3.14226 0.43937,-0.38613 2.14366,-1.15838 2.14366,0.83882 v 3.62159 c 1.03855,0 1.50455,0.14646 1.50455,-0.29292 v -4.02103 c 0,-1.59776 -1.79748,-2.35669 -3.24877,-1.6377 -0.27962,0.13314 -0.59916,0.33286 -0.67905,0.62579 z"
       class="fil13"
       inkscape:connector-curvature="0"
       style="clip-rule:evenodd;fill:#fefefe;fill-rule:evenodd;stroke-width:0.01331466;image-rendering:optimizeQuality;shape-rendering:geometricPrecision;text-rendering:geometricPrecision" />
    <path
       id="path4831-0"
       d="m 112.88922,202.01053 c 0,1.58445 0.74562,3.00912 2.11703,3.11563 -0.13315,0.27961 -0.31955,0.95866 -0.39944,1.30484 0.38612,0.0133 0.78556,0.13315 1.10511,0.19972 -0.0533,0.71899 -1.06517,0.53259 -1.59776,0.39944 v 1.01191 c 0.43939,0.04 0.25298,0.0932 1.01192,0.0932 2.30344,0 2.27681,-2.27681 0.70568,-2.31675 0.0533,-0.22635 0.0799,-0.22635 0.0932,-0.49265 1.97057,0 1.70428,-0.6391 1.70428,-1.30483 0,-0.58585 -0.34619,0 -1.50456,0 -2.02383,0 -2.10372,-3.19552 -0.55922,-3.67485 1.78417,-0.55922 1.97057,1.10512 1.97057,-0.83883 0,-0.58584 -1.42467,-0.49264 -1.91731,-0.49264 -1.34478,0 -2.71619,1.38473 -2.71619,3.00912 z"
       class="fil13"
       inkscape:connector-curvature="0"
       style="clip-rule:evenodd;fill:#fefefe;fill-rule:evenodd;stroke-width:0.01331466;image-rendering:optimizeQuality;shape-rendering:geometricPrecision;text-rendering:geometricPrecision" />
    <path
       id="path4833-5"
       d="m 199.22152,200.69238 c 0,2.31675 2.91591,1.34478 2.91591,2.51647 0,1.0918 -2.59636,0.39944 -2.91591,0.39944 v 1.21164 c 1.11843,0.26629 2.47652,0.59916 3.66153,-0.15978 0.82551,-0.53259 1.37141,-2.58305 -0.43939,-3.18221 -0.50595,-0.15977 -1.71759,-0.19972 -1.71759,-0.89208 0,-0.93202 2.40996,-0.34618 2.71619,-0.19972 v -1.30484 c -0.69236,-0.0532 -0.5459,-0.29292 -2.01051,-0.29292 -1.18501,0 -2.21023,0.73231 -2.21023,1.91731 l -0.0133,-0.0133 z"
       class="fil13"
       inkscape:connector-curvature="0"
       style="clip-rule:evenodd;fill:#fefefe;fill-rule:evenodd;stroke-width:0.01331466;image-rendering:optimizeQuality;shape-rendering:geometricPrecision;text-rendering:geometricPrecision" />
    <path
       id="path4835-1"
       d="m 131.88924,200.69238 c 0,1.67765 0.95866,1.66433 2.19692,2.02383 1.25158,0.37281 0.70568,1.29152 -0.49263,1.29152 -0.59917,0 -1.22496,-0.1864 -1.70429,-0.29292 v 1.21163 c 1.05186,0.50596 4.43379,0.73231 4.43379,-1.70427 0,-2.19692 -2.91592,-1.37142 -2.91592,-2.51648 0,-0.77225 1.58445,-0.45269 1.97057,-0.35949 0.81221,0.19972 0.74563,0.33286 0.74563,-0.85214 0,-0.3595 -0.49265,-0.38613 -0.83882,-0.46601 -1.58445,-0.29293 -3.36862,0.0266 -3.36862,1.66433 h -0.0133 z"
       class="fil13"
       inkscape:connector-curvature="0"
       style="clip-rule:evenodd;fill:#fefefe;fill-rule:evenodd;stroke-width:0.01331466;image-rendering:optimizeQuality;shape-rendering:geometricPrecision;text-rendering:geometricPrecision" />
    <path
       id="path4837-1"
       d="m 188.66297,198.9881 h -1.1051 c 0,1.53119 -0.21304,1.30484 1.1051,1.30484 0,3.68816 -0.4527,4.81991 2.40997,4.81991 0.50596,0 0.4527,-0.0932 0.9054,-0.0932 v -1.30484 c -0.70568,0.0533 -0.69236,0.21303 -1.59778,0 -0.31953,-0.66574 -0.1997,-2.51647 -0.1997,-3.42187 l 1.81079,-0.0932 c 0,-0.58585 -0.0932,-0.70568 -0.0932,-1.21164 h -1.70429 v -1.70428 h -1.50456 v 1.70428 z"
       class="fil13"
       inkscape:connector-curvature="0"
       style="clip-rule:evenodd;fill:#fefefe;fill-rule:evenodd;stroke-width:0.01331466;image-rendering:optimizeQuality;shape-rendering:geometricPrecision;text-rendering:geometricPrecision" />
    <path
       id="path4839-0"
       d="m 150.87597,198.9881 h -1.10512 v 1.30484 h 1.10512 v 3.31535 c 0,2.07709 3.31535,1.78417 3.31535,1.21164 v -1.01192 c -2.02383,0 -1.8108,0.94534 -1.8108,-3.51507 h 1.70428 c 0,-1.59776 0.31955,-1.30484 -1.70428,-1.30484 v -1.59776 h -1.50455 z"
       class="fil13"
       inkscape:connector-curvature="0"
       style="clip-rule:evenodd;fill:#fefefe;fill-rule:evenodd;stroke-width:0.01331466;image-rendering:optimizeQuality;shape-rendering:geometricPrecision;text-rendering:geometricPrecision" />
    <path
       id="path4841-8"
       d="m 161.74072,205.01965 h 1.59776 v -4.62019 c 0,-1.57113 -0.0932,-2.76945 -0.0932,-4.31395 h -1.50455 v 8.94745 z"
       class="fil13"
       inkscape:connector-curvature="0"
       style="clip-rule:evenodd;fill:#fefefe;fill-rule:evenodd;stroke-width:0.01331466;image-rendering:optimizeQuality;shape-rendering:geometricPrecision;text-rendering:geometricPrecision" />
    <polygon
       transform="matrix(0.01331466,0,0,0.01331466,5.0537254,100.4729)"
       id="polygon4843-5"
       points="7488,7859 7488,7187 7375,7187 7375,7859 "
       class="fil13"
       style="clip-rule:evenodd;fill:#fefefe;fill-rule:evenodd;image-rendering:optimizeQuality;shape-rendering:geometricPrecision;text-rendering:geometricPrecision" />
    <path
       id="path4845-0"
       d="m 140.22422,204.81993 c 0,0.42606 0.38614,0.29292 1.30484,0.29292 0.23968,0 0.29294,-0.0666 0.29294,-0.29292 v -8.04206 h -1.59778 z"
       class="fil13"
       inkscape:connector-curvature="0"
       style="clip-rule:evenodd;fill:#fefefe;fill-rule:evenodd;stroke-width:0.01331466;image-rendering:optimizeQuality;shape-rendering:geometricPrecision;text-rendering:geometricPrecision" />
    <path
       id="path4847-6"
       d="m 164.84304,199.28102 v 5.73863 h 1.59776 v -6.03155 h -1.30484 c -0.23966,0 -0.29292,0.0666 -0.29292,0.29292 z"
       class="fil13"
       inkscape:connector-curvature="0"
       style="clip-rule:evenodd;fill:#fefefe;fill-rule:evenodd;stroke-width:0.01331466;image-rendering:optimizeQuality;shape-rendering:geometricPrecision;text-rendering:geometricPrecision" />
    <path
       id="path4849-4"
       d="m 119.42672,197.57675 v 0.39944 h 1.01191 c 0.0266,-0.27961 0.0533,-0.27961 0.0932,-0.49265 0.74562,0.0133 1.03855,0.53259 1.73091,0.58585 1.0918,0.0666 1.185,-0.83882 1.185,-1.58444 h -1.01191 c -0.0266,0.2796 -0.0533,0.2796 -0.0932,0.49264 -0.74562,-0.0133 -1.03855,-0.53259 -1.73091,-0.58585 -0.70568,-0.0533 -1.185,0.43939 -1.185,1.18501 z"
       class="fil13"
       inkscape:connector-curvature="0"
       style="clip-rule:evenodd;fill:#fefefe;fill-rule:evenodd;stroke-width:0.01331466;image-rendering:optimizeQuality;shape-rendering:geometricPrecision;text-rendering:geometricPrecision" />
    <path
       id="path4851-6"
       d="m 164.84304,197.48354 c 0,0.42607 0.38612,0.29293 1.30485,0.29293 0.466,0 0.29291,-0.57253 0.29291,-1.70428 h -1.59776 z"
       class="fil13"
       inkscape:connector-curvature="0"
       style="clip-rule:evenodd;fill:#fefefe;fill-rule:evenodd;stroke-width:0.01331466;image-rendering:optimizeQuality;shape-rendering:geometricPrecision;text-rendering:geometricPrecision" />
    <path
       style="clip-rule:evenodd;fill:#ffffff;fill-rule:evenodd;stroke-width:0.05983665;image-rendering:optimizeQuality;shape-rendering:geometricPrecision;text-rendering:geometricPrecision"
       d="m 394.79492,-88.363281 c -1.9684,0 -4.01803,0.399616 -5.80078,1.734375 -1.78275,1.334755 -2.93945,3.742777 -2.93945,6.111328 a 3.7799055,3.7799055 0 0 0 0.14843,1.027344 l -0.0293,-0.05859 v 61.02539 c 0,2.340322 0.78098,4.560135 2.20703,6.111329 1.42605,1.551156 3.33089,2.340475 5.13086,2.5468746 3.59993,0.4128756 7.4808,-1.1004046 9.04297,-4.9746096 a 3.7799055,3.7799055 0 0 0 0.006,-0.02148 c 0.46726,-1.186054 0.4122,-1.646446 0.48828,-2.44336 0.0761,-0.796875 0.13035,-1.713866 0.16992,-2.746093 0.0792,-2.064416 0.10728,-4.583759 0.11133,-7.125 0.002,-1.482407 -0.0138,-1.998087 -0.0234,-3.410157 l 17.92383,15.40625 c 1.20737,1.089563 3.11642,2.964663 5.75,4.207032 1.31679,0.621165 2.91688,1.1243696 4.77539,0.923828 1.85529,-0.200239 3.77659,-1.287898 5.05078,-2.857422 1.32998,-1.629165 2.11946,-3.718218 2.01367,-5.705078 -0.10605,-1.992227 -0.95615,-3.641694 -1.91797,-4.960938 -1.92366,-2.638488 -4.49268,-4.464192 -6.58593,-6.15039 l -22.74219,-19.384766 c 0.45456,-0.353159 0.55799,-0.447009 1.21094,-0.958984 l 0.0137,-0.0078 c 1.27646,-0.994809 1.76384,-1.594013 2.50976,-2.251953 l 0.0371,-0.03516 12.40821,-10.556641 -0.16211,0.125 c 1.44268,-1.099124 1.64667,-1.452663 2.5332,-2.191406 l 4.96094,-4.134766 c 1.47934,-1.2373 3.81936,-2.819946 5.66797,-5.263671 0.92428,-1.221865 1.7632,-2.76815 1.96484,-4.664063 0.20107,-1.890705 -0.37989,-3.961409 -1.53711,-5.669922 -10e-4,-0.0019 -0.005,0.0019 -0.006,0 -1.36252,-2.01651 -3.69579,-3.430777 -5.90625,-3.535156 -2.21246,-0.104478 -3.96358,0.703711 -5.4043,1.564453 -2.88143,1.721488 -5.20099,4.233049 -5.74218,4.671875 a 3.7799055,3.7799055 0 0 0 -0.0293,0.02344 c -1.51563,1.252045 -2.40389,2.1385 -3.54297,2.980469 a 3.7799055,3.7799055 0 0 0 -0.19922,0.15625 l -13.22851,11.183594 v -6.496094 c 0,-2.432288 0.34393,-5.125407 -0.35547,-8.060547 -0.34968,-1.467567 -1.08894,-3.139353 -2.56836,-4.371093 -1.47943,-1.231741 -3.45554,-1.763672 -5.4043,-1.763672 z m 0,1.888672 c 1.64755,0 3.11428,0.423841 4.19336,1.322265 1.07909,0.898428 1.65065,2.14501 1.94141,3.365235 0.58152,2.440444 0.30273,5.086592 0.30273,7.61914 v 10.658203 c 0.2658,-0.264151 0.47149,-0.478128 0.9082,-0.847656 l 15.43555,-13.050781 a 1.8899528,1.8899528 0 0 1 0.0957,-0.08203 c 1.25759,-0.929594 2.17906,-1.846545 3.625,-3.041016 a 1.8899528,1.8899528 0 0 1 0.0137,-0.01563 c 0.82409,-0.668186 2.99391,-3.006338 5.52343,-4.517578 1.26475,-0.755618 2.70504,-1.376395 4.34766,-1.298828 1.64262,0.07757 3.3207,1.048184 4.43555,2.701172 0.96007,1.414832 1.37967,2.976431 1.22656,4.416015 -0.15334,1.441822 -0.81208,2.680287 -1.60352,3.726563 -1.58294,2.09255 -3.80277,3.638541 -5.36523,4.945312 a 1.8899528,1.8899528 0 0 1 0,0.0078 l -4.96094,4.134765 c -0.95025,0.791868 -1.15203,1.123373 -2.38476,2.074219 l -0.0801,0.06641 -12.34375,10.511719 -0.0215,0.01367 c -0.84706,0.743811 -1.27566,1.285581 -2.45117,2.201172 l -0.008,0.0078 c -1.48392,1.163604 -2.43288,1.870844 -2.94531,2.345703 0.0392,0.03443 0.12609,0.04624 0.16211,0.08203 0.48824,0.485442 0.46056,0.571814 0.9375,0.982422 l 0.008,0.0059 23.34961,19.894531 0.0371,0.0293 c 2.11566,1.702299 4.56199,3.501548 6.20703,5.757813 0.82707,1.134425 1.47092,2.443416 1.55078,3.943359 0.0797,1.49692 -0.48276,3.061861 -1.58789,4.414063 l -0.006,0.0078 c -1.0179,1.253027 -2.40543,2.01365 -3.78125,2.162109 -1.379,0.1488 -2.65305,-0.224331 -3.77148,-0.751953 -2.22078,-1.047609 -4.0387,-2.769638 -5.25586,-3.86914 l -0.0215,-0.01367 c -0.004,-0.0035 -0.0118,-0.01219 -0.0156,-0.01563 l -21.10352,-18.144531 c 0.0257,2.333102 0.0559,4.284097 0.0508,7.550781 -0.004,2.529033 -0.0338,5.028961 -0.11133,7.050781 -0.0388,1.01091 -0.0839,1.897569 -0.15429,2.634766 -0.0704,0.737196 -0.0869,1.217184 -0.36914,1.933593 a 1.8899528,1.8899528 0 0 1 -0.008,0.01563 c -1.15506,2.86458 -4.22899,4.126841 -7.07227,3.800782 -1.42164,-0.163049 -2.86832,-0.771531 -3.94922,-1.947266 -1.0809,-1.175773 -1.71289,-2.872926 -1.71289,-4.835938 v -58.21289 h -0.56836 l -0.75976,-1.617188 a 3.7799055,3.7799055 0 0 0 1.32812,1.171875 v -2.677734 a 1.8899528,1.8899528 0 0 1 -0.11719,-0.658203 c 0,-1.887356 0.84987,-3.59762 2.18555,-4.597656 1.33568,-1.000037 2.97678,-1.359375 4.66406,-1.359375 z m -6.42969,7.146484 0.33399,0.701172 h 1.13672 a 1.8899528,1.8899528 0 0 1 -1.47071,-0.701172 z"
       transform="matrix(0.26458333,0,0,0.26458333,-6.4036264,114.444)"
       id="path5258"
       inkscape:connector-curvature="0" />
    <path
       id="path4795-2"
       d="m 96.771076,93.173173 v 16.370067 c 0,1.67817 2.010635,1.58319 2.406425,0.60162 0.205824,-0.52246 0.110834,-5.19282 0.110834,-5.98442 l 6.427705,5.5253 c 0.64911,0.58576 1.86814,1.70983 2.67557,0.71243 0.93406,-1.13989 -0.42745,-2.12147 -1.56734,-3.0397 l -6.19022,-5.27199 c -0.33248,-0.28498 -0.19,-0.33247 -0.63329,-0.44329 0.0474,-0.45913 0.33249,-0.60162 1.13989,-1.23489 0.28498,-0.22165 0.37997,-0.34831 0.63329,-0.569945 l 3.29298,-2.802227 c 0.33249,-0.253309 0.34832,-0.316636 0.6333,-0.554113 l 1.31402,-1.092392 c 0.87074,-0.728263 2.23229,-1.614843 1.42487,-2.802227 -0.91825,-1.361533 -2.46975,0.459121 -3.05553,0.934075 -0.36413,0.300804 -0.61746,0.554114 -0.98157,0.823253 l -4.0846,3.45133 c -0.20581,0.17415 -0.28498,0.284972 -0.490795,0.459121 -0.18999,0.158319 -0.37996,0.269142 -0.56994,0.395796 0,-1.266544 0,-2.548918 0,-3.831293 0,-1.393197 0.22165,-2.754731 -1.203224,-2.754731 -0.74409,0 -1.314033,0.332468 -1.314033,1.076562 h 0.01584 z"
       class="fil13"
       inkscape:connector-curvature="0"
       style="clip-rule:evenodd;fill:#fefefe;fill-rule:evenodd;stroke-width:0.01583178;image-rendering:optimizeQuality;shape-rendering:geometricPrecision;text-rendering:geometricPrecision" />
    <path
       style="clip-rule:evenodd;fill:#ffffff;fill-rule:evenodd;stroke-width:0.05983665;image-rendering:optimizeQuality;shape-rendering:geometricPrecision;text-rendering:geometricPrecision"
       d="m 266.0332,-88.246094 c -2.14999,0 -4.37222,0.30357 -6.44336,1.587891 -2.07113,1.284321 -3.68359,3.966149 -3.68359,6.746094 a 3.7799055,3.7799055 0 0 0 1.07617,2.636718 c 0.33729,1.240332 0.3381,2.609052 1.24805,3.550782 1.60258,1.658551 3.6752,2.254148 5.58789,2.509765 2.76093,0.368984 6.28577,0.11712 9.80273,-0.0078 v 44.373047 h -9.33007 c -2.50267,0 -4.8566,1.143866 -6.28125,2.826171 -1.42466,1.682306 -2.03125,3.717451 -2.03125,5.707032 0,1.989581 0.60659,4.030585 2.03125,5.71289 1.42465,1.682268 3.77858,2.8281254 6.28125,2.8281254 h 35.18945 c 2.65437,0 5.11232,-0.9533874 6.74805,-2.6074214 1.63573,-1.654035 2.38908,-3.822139 2.41406,-5.882813 0.025,-2.060712 -0.63125,-4.110269 -2.05274,-5.771484 -1.42148,-1.661178 -3.73306,-2.8125 -6.21679,-2.8125 h -9.74414 V -71.15625 c 1.88305,0.06088 3.5331,0.131824 5.66211,0.103516 1.77511,-0.0236 3.50209,-0.102412 5.13086,-0.376954 1.62582,-0.274045 3.26738,-0.480166 4.92382,-2.228515 l 0.008,-0.0078 c 2.30734,-2.434631 2.85332,-5.791623 1.67578,-8.925781 -1.17878,-3.137454 -4.742,-5.654297 -9.0293,-5.654297 z m 0,1.890625 H 299 c 3.6994,0 6.33946,1.985392 7.25781,4.429688 0.91835,2.444296 0.44785,5.144942 -1.27734,6.960937 -1.08405,1.14782 -2.40625,1.421389 -3.86914,1.667969 -1.46289,0.246584 -3.12605,0.3306 -4.84961,0.353516 -2.75499,0.03664 -5.31019,-0.08413 -7.52149,-0.140625 v 48.123046 h 11.63282 c 1.96739,0 3.69274,0.871827 4.78515,2.148438 1.09241,1.276649 1.61346,2.900345 1.59375,4.525391 -0.0197,1.625045 -0.60822,3.303113 -1.86718,4.576171 -1.25897,1.273021 -3.15713,2.044922 -5.4043,2.044922 h -35.18945 c -2.00677,0 -3.75176,-0.869094 -4.8418,-2.15625 -1.09005,-1.287193 -1.58008,-2.90466 -1.58008,-4.49414 0,-1.589518 0.49003,-3.201126 1.58008,-4.488282 1.09004,-1.287193 2.83503,-2.15625 4.8418,-2.15625 h 11.2207 v -48.152343 c -4.51051,0.09428 -8.5257,0.418962 -11.44141,0.0293 -1.69863,-0.227014 -3.29518,-0.734454 -4.47461,-1.955078 -0.95497,-0.988324 -1.36979,-2.370012 -1.52734,-3.890626 a 1.8899528,1.8899528 0 0 1 -0.27344,-0.982421 c 0,-2.227684 1.17507,-4.134657 2.79102,-5.136719 1.61595,-1.002059 3.51959,-1.306641 5.44726,-1.306641 z"
       transform="matrix(0.26458333,0,0,0.26458333,-6.4036264,114.444)"
       id="path5220"
       inkscape:connector-curvature="0" />
    <path
       id="path4797-5"
       d="m 62.336922,93.283996 c 0,1.78899 1.630676,1.314037 4.654547,1.314037 v 13.741997 h -3.467162 c -1.59901,0 -1.59901,2.51726 0,2.51726 h 9.309091 c 1.94731,0 1.773177,-2.51726 0.237478,-2.51726 H 69.492891 V 94.598033 c 1.250728,0 3.89462,0.237477 4.432901,-0.332467 0.601608,-0.633272 0.427458,-2.168955 -1.219049,-2.168955 H 63.98343 c -0.902413,0 -1.678171,0.316636 -1.678171,1.203216 h 0.03167 z"
       class="fil13"
       inkscape:connector-curvature="0"
       style="clip-rule:evenodd;fill:#fefefe;fill-rule:evenodd;stroke-width:0.01583178;image-rendering:optimizeQuality;shape-rendering:geometricPrecision;text-rendering:geometricPrecision" />
    <path
       style="clip-rule:evenodd;fill:#ffffff;fill-rule:evenodd;stroke-width:0.05983665;image-rendering:optimizeQuality;shape-rendering:geometricPrecision;text-rendering:geometricPrecision"
       d="m 156.58984,-87.898438 c -5.58903,0.03488 -9.83587,0.515264 -13.33984,3.248047 -3.50397,2.732784 -5.52437,6.724518 -8.65039,12.976563 -2.67506,5.350114 -7.19345,12.81348 -8.00195,20.417969 a 3.7799055,3.7799055 0 0 0 -0.59961,2.039062 c 0,9.108548 5.0905,16.446617 8.54101,23.347656 2.05361,4.122142 3.64541,7.177458 5.49219,9.648438 1.84785,2.472453 4.1707,4.372136 6.93164,5.351562 5.52188,1.9588539 11.59887,1.0937504 23.50391,1.0937504 2.46283,0 4.40325,-1.1537134 5.82422,-2.5996094 1.42097,-1.445896 2.5039,-3.321826 2.5039,-5.728516 0,-2.603225 -1.29812,-5.243174 -3.23437,-6.666015 -1.93625,-1.422803 -4.07374,-1.884876 -6.23633,-2.132813 -4.32286,-0.495571 -9.17283,-0.005 -13.73047,0.05273 -1.42306,0.0127 -2.11129,-0.154328 -2.3418,-0.251953 -0.2305,-0.09763 -0.27018,-0.08366 -0.66992,-0.679688 -0.79948,-1.192063 -2.13173,-4.668084 -4.82031,-10.076172 a 3.7799055,3.7799055 0 0 0 -0.008,-0.02148 c -2.7863,-5.509304 -4.5625,-7.453799 -4.5625,-11.81836 0,0.716939 0.31001,-1.223823 1.07812,-3.130859 0.76811,-1.907078 1.84997,-4.277868 2.98828,-6.642578 2.2611,-4.697178 4.75397,-9.390673 5.47852,-10.703125 0.42355,-0.728368 0.1455,-0.586728 1.80859,-0.708984 1.66898,-0.122688 4.70262,0.132812 8.74805,0.132812 2.44564,0 5.62864,0.297174 8.60742,-0.392578 1.37208,-0.311841 3.52872,-1.119443 4.79688,-2.69336 2.06075,-2.54626 2.43244,-5.765976 1.50585,-8.533203 -0.92824,-2.7722 -3.73408,-5.396484 -7.25585,-5.396484 -6.06946,0 -10.63265,-0.156057 -14.35743,-0.132813 z m 0.008,1.888672 c 3.66029,-0.02284 8.24825,0.134766 14.34961,0.134766 2.68835,0 4.73322,1.924361 5.46289,4.103516 0.72869,2.176218 0.43912,4.75494 -1.17383,6.746093 l -0.008,0.0078 c -0.98963,1.231117 -2.39409,1.725815 -3.73438,2.03125 -2.39023,0.55776 -5.68872,0.345703 -8.20117,0.345703 -3.95245,0 -6.93141,-0.268305 -8.88086,-0.125 -1.94356,0.142874 -2.57097,0.37476 -3.30664,1.630859 l -0.008,0.0078 c -0.75115,1.359239 -3.24735,6.079213 -5.53711,10.835937 -1.14892,2.386753 -2.24645,4.788953 -3.04102,6.761719 -0.79457,1.972762 -1.21875,3.764189 -1.21875,3.832031 0,4.904844 2.05216,7.310451 4.76172,12.667969 a 1.8899528,1.8899528 0 0 1 0.008,0.01367 c 2.64574,5.321877 3.88354,8.707847 4.94531,10.291016 0.53089,0.791584 0.90369,1.112648 1.5,1.365234 0.59632,0.252548 1.55037,0.412271 3.09961,0.398437 4.65606,-0.059 9.49745,-0.515916 13.48633,-0.05859 1.99554,0.228775 3.83861,0.665443 5.34375,1.771484 1.50515,1.106041 2.45899,3.005205 2.45899,5.144531 0,1.741871 -0.82611,3.251479 -1.96289,4.408204 -1.13678,1.156724 -2.67475,2.029296 -4.47461,2.029296 -11.96611,0 -18.05772,0.726454 -22.875,-0.982422 -2.40864,-0.854475 -4.34622,-2.425707 -6.04688,-4.701171 -1.70066,-2.275503 -3.26956,-5.262394 -5.31445,-9.367188 -3.52036,-7.040731 -8.3418,-14.14611 -8.3418,-22.5 a 1.8899528,1.8899528 0 0 1 0.19922,-0.849609 c 0.37822,-7.096887 5.32827,-15.012012 8.20117,-20.757813 3.11129,-6.222569 5.10141,-9.980849 8.1211,-12.335937 3.01968,-2.355084 6.69612,-2.815341 12.1875,-2.84961 z"
       transform="matrix(0.26458333,0,0,0.26458333,-6.4036264,114.444)"
       id="path5204"
       inkscape:connector-curvature="0" />
    <path
       id="path4799-8"
       d="m 27.93445,101.42154 c 0,2.01064 1.203216,3.83129 2.153124,5.73111 2.153122,4.32207 2.248113,3.70464 8.612491,3.70464 0.601607,0 1.203215,-0.63327 1.203215,-1.20322 0,-1.77316 -2.612244,-1.3457 -5.129498,-1.31404 -1.773159,0.0158 -1.599011,-0.6966 -2.976376,-3.46716 -0.696599,-1.37737 -1.314039,-2.1373 -1.314039,-3.57799 0,-0.9024 2.248114,-5.176995 2.659741,-5.921089 0.554113,-0.949908 1.614843,-0.649104 3.657143,-0.649104 0.680766,0 1.583178,0.03167 2.058132,-0.07916 0.348299,-0.07916 0.522449,-0.126655 0.712431,-0.364132 0.617439,-0.759926 0.237476,-2.058133 -0.744094,-2.058133 -6.491033,0 -6.538528,-0.664935 -8.723315,3.704638 -0.807422,1.614843 -2.153124,3.831295 -2.153124,5.49363 v 0.0475 z"
       class="fil13"
       inkscape:connector-curvature="0"
       style="clip-rule:evenodd;fill:#ffffff;fill-rule:evenodd;stroke-width:0.01583178;image-rendering:optimizeQuality;shape-rendering:geometricPrecision;text-rendering:geometricPrecision" />
    <path
       style="clip-rule:evenodd;fill:#ffffff;fill-rule:evenodd;stroke-width:0.05983665;image-rendering:optimizeQuality;shape-rendering:geometricPrecision;text-rendering:geometricPrecision"
       d="m 351.69336,-88.289062 c -3.46683,0.02737 -6.2828,0.279978 -8.99219,1.1875 -2.70939,0.907517 -5.08949,2.656362 -7.00586,5.027343 -1.91637,2.370977 -3.54024,5.325314 -5.49804,9.271485 a 3.7799055,3.7799055 0 0 0 0,0.0078 c -1.03641,2.100079 -3.26544,6.102376 -5.23438,10.259766 -1.63502,3.452318 -2.72919,6.872662 -3.22656,10.335937 a 3.7799055,3.7799055 0 0 0 -0.66406,2.082031 v 0.05859 h 0.008 c 0.0216,9.932674 5.13834,17.414471 8.82226,24.839844 a 3.7799055,3.7799055 0 0 0 0.006,0.0078 c 1.99487,3.989745 3.68858,6.986982 5.66211,9.375 1.97354,2.387982 4.37334,4.1284 7.09375,5.048829 5.44082,1.8409319 11.27527,1.0703121 21.4961,1.0703121 2.2013,0 4.3735,-0.5641251 6.24609,-1.8964841 1.87259,-1.332359 3.40234,-3.731748 3.40234,-6.429688 0,-1.953297 -0.56914,-3.914531 -1.74218,-5.396484 -1.17304,-1.481991 -2.7667,-2.353255 -4.28907,-2.841797 -3.04472,-0.977046 -6.12189,-0.812759 -9.14648,-0.650391 -3.02459,0.162369 -5.99436,0.408696 -8.08984,0.28125 -2.09549,-0.127445 -2.63651,-0.615862 -2.58985,-0.539062 -1.57516,-2.687244 -3.54878,-7.183246 -5.32422,-10.607422 l 0.0234,0.05859 c -1.9344,-3.883767 -3.26977,-6.570894 -3.95703,-8.445313 -0.68726,-1.874419 -0.77955,-2.741206 -0.58398,-3.949218 0.39112,-2.416063 3.07988,-7.03679 8.3125,-17.501954 a 3.7799055,3.7799055 0 0 0 0.0156,-0.03711 c 0.64653,-1.329048 1.07122,-2.395762 1.38672,-2.902344 0.3155,-0.506577 0.21044,-0.37315 0.38476,-0.419922 a 3.7799055,3.7799055 0 0 0 0.0742,-0.02148 c 0.52031,-0.15106 4.19784,-0.303206 7.78711,-0.15625 3.58928,0.146959 7.26852,0.424605 10.3125,0.0293 a 3.7799055,3.7799055 0 0 0 0.0156,-0.0059 c 4.66373,-0.628822 7.43202,-4.977042 7.21094,-8.947265 -0.11055,-1.98511 -0.91665,-4.04621 -2.53126,-5.595703 -1.61461,-1.549489 -3.96848,-2.427735 -6.49609,-2.427735 -5.30535,0 -9.42185,-0.197285 -12.88867,-0.169921 z m 0.0293,1.917968 c 3.39066,-0.03038 7.52152,0.140625 12.85937,0.140625 2.13144,0 3.94985,0.714687 5.18945,1.904297 1.23961,1.189614 1.86817,2.773316 1.95508,4.333984 0.17382,3.121338 -1.91684,6.48069 -5.58008,6.97461 a 1.8899528,1.8899528 0 0 1 -0.008,0 c -2.67383,0.347236 -6.38573,0.104773 -9.99414,-0.04297 -3.60841,-0.147742 -7.20692,-0.116279 -8.39453,0.228516 a 1.8899528,1.8899528 0 0 1 -0.0352,0.0078 c -0.70049,0.187937 -1.03189,0.514835 -1.49218,1.253907 -0.4603,0.739075 -0.89187,1.854256 -1.48438,3.072265 a 1.8899528,1.8899528 0 0 1 -0.006,0.01367 c -5.20426,10.408452 -7.9877,14.944589 -8.49023,18.048828 -0.25127,1.552101 -0.0724,2.851119 0.67969,4.902344 0.74949,2.044157 2.10202,4.749847 4.02343,8.607422 1.7253,3.327496 3.70437,7.848362 5.38867,10.716797 10e-4,0.0023 0.006,0.0054 0.008,0.0078 0.46663,0.758173 1.76969,1.298477 4.08789,1.439453 2.32542,0.141392 5.32604,-0.127537 8.29883,-0.287109 2.97278,-0.15961 5.91765,-0.252214 8.4746,0.568359 1.27848,0.410268 2.49765,1.099052 3.38086,2.214844 0.88322,1.11583 1.33594,2.591563 1.33594,4.222656 0,2.067024 -1.12454,3.831626 -2.60742,4.886719 -1.48288,1.055093 -3.30374,1.548828 -5.15234,1.548828 -10.28631,0 -16.09148,0.657002 -20.89063,-0.966797 -2.39958,-0.811918 -4.43671,-2.27782 -6.24414,-4.464843 -1.80743,-2.187024 -3.45601,-5.081894 -5.42578,-9.021485 -3.75167,-7.561927 -8.60573,-14.739943 -8.62891,-23.998047 h -0.008 v -0.05859 a 1.8899528,1.8899528 0 0 1 0.16211,-0.746093 c 3.4e-4,-0.005 0.007,-0.01064 0.008,-0.01563 0.23033,-3.301077 1.73947,-7.059978 3.53516,-10.851563 1.93235,-4.080136 4.13268,-8.021935 5.21875,-10.222656 a 1.8899528,1.8899528 0 0 1 0.008,-0.0078 c 1.9363,-3.902815 3.51994,-6.758736 5.27149,-8.925781 1.75154,-2.167049 3.75147,-3.622286 6.13281,-4.419922 2.38133,-0.797635 5.03316,-1.03408 8.42383,-1.064453 z m -25.0293,36.841797 c -0.007,0.0051 -0.0262,0.0322 -0.0625,0.09766 0.006,0.06888 0.0848,-0.112947 0.0625,-0.09766 z"
       transform="matrix(0.26458333,0,0,0.26458333,-6.4036264,114.444)"
       id="path5242"
       inkscape:connector-curvature="0" />
    <path
       id="path4801-6"
       d="m 79.546075,101.18406 c 0,2.27978 1.219064,4.10044 2.232298,6.14273 2.058117,4.11627 2.691388,3.54633 8.169203,3.54633 0.79159,0 1.551515,-0.4433 1.551515,-1.20322 0,-2.77057 -5.667779,-0.20582 -6.696845,-1.89981 -0.474954,-0.80742 -0.997419,-2.01064 -1.440693,-2.86556 -2.042316,-4.10043 -1.741514,-3.32468 0.997402,-8.802477 0.284955,-0.585776 0.459122,-1.234879 1.108225,-1.409029 0.981555,-0.284973 3.720469,0.09499 4.939501,-0.06332 1.40903,-0.189982 1.488205,-2.501423 -0.348283,-2.501423 -5.683627,0 -6.174397,-0.585777 -8.200881,3.498824 -0.601607,1.219049 -2.311442,4.132091 -2.311442,5.572795 z"
       class="fil13"
       inkscape:connector-curvature="0"
       style="clip-rule:evenodd;fill:#fefefe;fill-rule:evenodd;stroke-width:0.01583178;image-rendering:optimizeQuality;shape-rendering:geometricPrecision;text-rendering:geometricPrecision" />
    <path
       style="clip-rule:evenodd;fill:#ffffff;fill-rule:evenodd;stroke-width:0.05983665;image-rendering:optimizeQuality;shape-rendering:geometricPrecision;text-rendering:geometricPrecision"
       d="m 198.91406,-88.152344 c -1.83889,0.07808 -3.70532,0.739116 -5.20117,2.091797 -1.70954,1.545921 -2.73047,3.976993 -2.73047,6.5625 a 3.7799055,3.7799055 0 0 0 0.0664,0.701172 v 65.242187 a 3.7799055,3.7799055 0 0 0 3.77929,3.7792974 h 40.62305 c 2.48815,0 4.83133,-1.1748894 6.22266,-2.8574214 1.39133,-1.682495 1.97232,-3.700146 1.97851,-5.669922 0.006,-1.969739 -0.56969,-3.99218 -1.96484,-5.683594 -1.39515,-1.691414 -3.74355,-2.863281 -6.23633,-2.863281 h -27.39453 v -52.228516 c 0,-5.151175 -4.18909,-8.875643 -8.35742,-9.072266 -0.2604,-0.01228 -0.52246,-0.01311 -0.78516,-0.002 z m 0.082,1.884766 c 0.20537,-0.0088 0.41071,-0.0096 0.61524,0 3.27342,0.154409 6.55469,2.923481 6.55469,7.189453 v 54.117187 h 29.28515 c 1.98687,0 3.71773,0.885968 4.78321,2.177735 1.06547,1.291729 1.53231,2.895031 1.52734,4.474609 -0.005,1.579578 -0.48628,3.185387 -1.55078,4.472656 -1.0645,1.287308 -2.78269,2.169922 -4.75977,2.169922 h -40.62305 a 1.8899528,1.8899528 0 0 1 -1.89062,-1.888672 v -65.441406 a 1.8899528,1.8899528 0 0 1 -0.0664,-0.501953 c 0,-2.145422 0.81006,-3.983423 2.11133,-5.160156 1.13862,-1.029642 2.57608,-1.547435 4.01367,-1.609375 z"
       transform="matrix(0.26458333,0,0,0.26458333,-6.4036264,114.444)"
       id="path5213"
       inkscape:connector-curvature="0" />
    <path
       sodipodi:type="inkscape:offset"
       inkscape:radius="0"
       inkscape:original="M 46.386719 92.119141 C 45.757405 92.089455 45.126953 92.507747 45.126953 93.410156 L 45.144531 93.410156 L 45.144531 110.85742 L 55.892578 110.85742 C 57.444094 110.85742 57.459925 108.33984 55.892578 108.33984 L 47.644531 108.33984 L 47.644531 93.521484 C 47.644531 92.626989 47.016032 92.148826 46.386719 92.119141 z "
       style="clip-rule:evenodd;fill:#fefefe;fill-rule:evenodd;stroke-width:0.01583178;image-rendering:optimizeQuality;shape-rendering:geometricPrecision;text-rendering:geometricPrecision"
       id="path4803-2"
       d="m 46.386719,92.119141 c -0.629314,-0.02969 -1.259766,0.388606 -1.259766,1.291015 h 0.01758 v 17.447264 h 10.748047 c 1.551516,0 1.567347,-2.51758 0,-2.51758 H 47.644531 V 93.521484 c 0,-0.894495 -0.628499,-1.372658 -1.257812,-1.402343 z" />
    <path
       style="clip-rule:evenodd;fill:#fefefe;fill-rule:evenodd;stroke-width:0.01583178;image-rendering:optimizeQuality;shape-rendering:geometricPrecision;text-rendering:geometricPrecision"
       inkscape:connector-curvature="0"
       class="fil13"
       d="m 79.546075,101.18406 c 0,2.27978 1.219064,4.10044 2.232298,6.14273 2.058117,4.11627 2.691388,3.54633 8.169203,3.54633 0.79159,0 1.551515,-0.4433 1.551515,-1.20322 0,-2.77057 -5.667779,-0.20582 -6.696845,-1.89981 -0.474954,-0.80742 -0.997419,-2.01064 -1.440693,-2.86556 -2.042316,-4.10043 -1.741514,-3.32468 0.997402,-8.802477 0.284955,-0.585776 0.459122,-1.234879 1.108225,-1.409029 0.981555,-0.284973 3.720469,0.09499 4.939501,-0.06332 1.40903,-0.189982 1.488205,-2.501423 -0.348283,-2.501423 -5.683627,0 -6.174397,-0.585777 -8.200881,3.498824 -0.601607,1.219049 -2.311442,4.132091 -2.311442,5.572795 z"
       id="path5230" />
    <path
       style="clip-rule:evenodd;fill:#fefefe;fill-rule:evenodd;stroke-width:0.01583178;image-rendering:optimizeQuality;shape-rendering:geometricPrecision;text-rendering:geometricPrecision"
       inkscape:connector-curvature="0"
       class="fil13"
       d="m 96.771076,93.173173 v 16.370067 c 0,1.67817 2.010635,1.58319 2.406425,0.60162 0.205824,-0.52246 0.110834,-5.19282 0.110834,-5.98442 l 6.427705,5.5253 c 0.64911,0.58576 1.86814,1.70983 2.67557,0.71243 0.93406,-1.13989 -0.42745,-2.12147 -1.56734,-3.0397 l -6.19022,-5.27199 c -0.33248,-0.28498 -0.19,-0.33247 -0.63329,-0.44329 0.0474,-0.45913 0.33249,-0.60162 1.13989,-1.23489 0.28498,-0.22165 0.37997,-0.34831 0.63329,-0.569945 l 3.29298,-2.802227 c 0.33249,-0.253309 0.34832,-0.316636 0.6333,-0.554113 l 1.31402,-1.092392 c 0.87074,-0.728263 2.23229,-1.614843 1.42487,-2.802227 -0.91825,-1.361533 -2.46975,0.459121 -3.05553,0.934075 -0.36413,0.300804 -0.61746,0.554114 -0.98157,0.823253 l -4.0846,3.45133 c -0.20581,0.17415 -0.28498,0.284972 -0.490795,0.459121 -0.18999,0.158319 -0.37996,0.269142 -0.56994,0.395796 0,-1.266544 0,-2.548918 0,-3.831293 0,-1.393197 0.22165,-2.754731 -1.203224,-2.754731 -0.74409,0 -1.314033,0.332468 -1.314033,1.076562 h 0.01584 z"
       id="path5244" />
  </g>
</svg>
